<svg width="320" height="320" viewBox="0 0 320 320" fill="none" xmlns="http://www.w3.org/2000/svg">
  <circle cx="160" cy="160" r="136" fill="#A96A43"/>
  <circle cx="160" cy="160" r="118" fill="#C7885C" stroke="#5F3825" stroke-width="10"/>
  <path d="M148 96c33-4 67 9 87 35 16 21 21 47 15 73-7 28-27 51-54 63-28 12-63 10-88-8-18-13-31-32-36-53-7-28 1-59 20-81 14-17 34-27 56-29z" fill="#5F3825" fill-opacity="0.16"/>
  <path d="M120 127c10-15 25-24 41-24 15 0 30 8 39 22 9 13 11 31 7 49-5 18-18 36-35 46-14 9-33 12-49 5-17-7-27-23-29-42-2-20 8-42 26-56z" fill="#5F3825"/>
  <path d="M108 236c23-15 50-22 77-21 18 1 35 5 51 12" stroke="#5F3825" stroke-width="12" stroke-linecap="round"/>
</svg>